# xmcd
#
# Track frame offsets:
#	150
#	12125
#	24306
#	42913
#	55738
#	67995
#	78629
#	89946
#	103262
#	113269
#
# Disc length: 1654 seconds
#
# Revision: 1
# Processed by: cddbd v1.5.2PL0 Copyright (c) Steve Scherf et al.
# Submitted via: audiograbber 1.83.01
#
DISCID=7706740a
DTITLE=Various  - History Of Country Music Disc 1
DYEAR=2017
DGENRE=Country
TTITLE0=Johnny Paycheck - Take This Job and Shove It
TTITLE1=Merle Haggard - Okie From Muskogee
TTITLE2=Juice Newton - Angel Of The Morning
TTITLE3=Johnny Cash - I Walk The Line
TTITLE4=Charlie Rich - Behind Closed Doors
TTITLE5=Roger Miller - King Of The Road
TTITLE6=Patsy Cline - Walking After Midnight
TTITLE7=Ray Price - Heartaches By The Number
TTITLE8=Conway Twitty - It's Only Make Believe
TTITLE9=Kitty Wells - It Wasn't God Who Made Honky Tonk Angels
EXTD=
EXTT0=
EXTT1=
EXTT2=
EXTT3=
EXTT4=
EXTT5=
EXTT6=
EXTT7=
EXTT8=
EXTT9=
PLAYORDER=
